<svg xmlns="http://www.w3.org/2000/svg" version="1.1" xmlns:xlink="http://www.w3.org/1999/xlink" xmlns:svgjs="http://svgjs.dev/svgjs" width="1500" height="549" viewBox="0 0 1500 549"><g transform="matrix(1,0,0,1,-0.9090909090909918,0.822831983846811)"><svg viewBox="0 0 396 145" data-background-color="#ffffff" preserveAspectRatio="xMidYMid meet" height="549" width="1500" xmlns="http://www.w3.org/2000/svg" xmlns:xlink="http://www.w3.org/1999/xlink"><g id="tight-bounds" transform="matrix(1,0,0,1,0.2400000000000091,-0.21732356586117874)"><svg viewBox="0 0 395.52 145.43464713172236" height="145.43464713172236" width="395.52"><g><svg viewBox="0 0 625.0288689651245 229.8261857935943" height="145.43464713172236" width="395.52"><g transform="matrix(1,0,0,1,229.50886896512455,0)"><svg viewBox="0 0 395.52 229.8261857935943" height="229.8261857935943" width="395.52"><g id="textblocktransform"><svg viewBox="0 0 395.52 229.8261857935943" height="229.8261857935943" width="395.52" id="textblock"><g><svg viewBox="0 0 395.52 123.16014234875445" height="123.16014234875445" width="395.52"><g transform="matrix(1,0,0,1,0,0)"><svg width="395.52" viewBox="1.05 -43.35 140.48999999999998 43.75" height="123.16014234875445" data-palette-color="#335a02"><path d="M12.1 0.4Q6.25 0.4 3.65-2.5 1.05-5.4 1.05-11.85L1.05-11.85 1.05-16.05 9.5-16.05 9.5-10.7Q9.5-7.5 11.55-7.5L11.55-7.5Q12.7-7.5 13.15-8.18 13.6-8.85 13.6-10.45L13.6-10.45Q13.6-12.55 13.1-13.93 12.6-15.3 11.83-16.23 11.05-17.15 9.05-19.1L9.05-19.1 5.35-22.8Q1.05-27 1.05-32.1L1.05-32.1Q1.05-37.6 3.58-40.48 6.1-43.35 10.95-43.35L10.95-43.35Q16.75-43.35 19.3-40.28 21.85-37.2 21.85-30.65L21.85-30.65 13.1-30.65 13.05-33.6Q13.05-34.45 12.58-34.95 12.1-35.45 11.25-35.45L11.25-35.45Q10.25-35.45 9.75-34.9 9.25-34.35 9.25-33.4L9.25-33.4Q9.25-31.3 11.65-29.05L11.65-29.05 16.65-24.25Q18.4-22.55 19.55-21.03 20.7-19.5 21.4-17.43 22.1-15.35 22.1-12.5L22.1-12.5Q22.1-6.15 19.78-2.88 17.45 0.4 12.1 0.4L12.1 0.4ZM33.5 0L24.95 0 24.95-42.95 33.5-42.95 33.5-27.6 37.55-27.6 37.55-42.95 46.1-42.95 46.1 0 37.55 0 37.55-19.5 33.5-19.5 33.5 0ZM60.15 0.4Q54.95 0.4 52.25-2.78 49.55-5.95 49.55-11.7L49.55-11.7 49.55-32.15Q49.55-37.7 52.25-40.53 54.95-43.35 60.15-43.35L60.15-43.35Q65.34-43.35 68.05-40.53 70.75-37.7 70.75-32.15L70.75-32.15 70.75-11.7Q70.75-5.9 68.05-2.75 65.34 0.4 60.15 0.4L60.15 0.4ZM60.15-7.5Q61.3-7.5 61.7-8.5 62.1-9.5 62.1-11.3L62.1-11.3 62.1-32.3Q62.1-33.7 61.72-34.58 61.35-35.45 60.2-35.45L60.2-35.45Q58.05-35.45 58.05-32.2L58.05-32.2 58.05-11.25Q58.05-9.4 58.5-8.45 58.95-7.5 60.15-7.5L60.15-7.5ZM74.19 0L74.19-42.95 85.54-42.95Q90.69-42.95 92.89-39.63 95.09-36.3 95.09-29.9L95.09-29.9Q95.09-23.5 93.14-20.25 91.19-17 86.14-17L86.14-17 82.64-17 82.64 0 74.19 0ZM82.64-24.75L83.14-24.75Q84.69-24.75 85.42-25.33 86.14-25.9 86.37-26.98 86.59-28.05 86.59-30.05L86.59-30.05Q86.59-32.75 85.99-33.95 85.39-35.15 83.59-35.15L83.59-35.15 82.64-35.15 82.64-24.75ZM97.79 0L97.79-42.95 109.14-42.95Q114.29-42.95 116.49-39.63 118.69-36.3 118.69-29.9L118.69-29.9Q118.69-23.5 116.74-20.25 114.79-17 109.74-17L109.74-17 106.24-17 106.24 0 97.79 0ZM106.24-24.75L106.74-24.75Q108.29-24.75 109.02-25.33 109.74-25.9 109.97-26.98 110.19-28.05 110.19-30.05L110.19-30.05Q110.19-32.75 109.59-33.95 108.99-35.15 107.19-35.15L107.19-35.15 106.24-35.15 106.24-24.75ZM134.69 0L126.59 0 126.59-14.15 119.74-42.95 128.24-42.95 130.64-28.4 133.04-42.95 141.54-42.95 134.69-14.15 134.69 0Z" opacity="1" transform="matrix(1,0,0,1,0,0)" fill="#335a02" class="wordmark-text-0" data-fill-palette-color="primary" id="text-0"></path></svg></g></svg></g><g transform="matrix(1,0,0,1,102.2118128325288,152.235296113879)"><svg viewBox="0 0 191.09637433494237 77.5908896797153" height="77.5908896797153" width="191.09637433494237"><g transform="matrix(1,0,0,1,0,0)"><svg width="191.09637433494237" viewBox="2.85 -39.65 99.49000000000001 40.4" height="77.5908896797153" data-palette-color="#000000"><path d="M14.5-27.1Q15.65-27.1 16.55-26.75L16.55-26.75 15.55-20.85Q14.55-21.1 13.7-21.1L13.7-21.1Q11.8-21.1 10.7-19.45 9.6-17.8 9-14.55L9-14.55 9 0 2.85 0 2.85-26.45 8.2-26.45 8.65-21.85Q10.5-27.1 14.5-27.1L14.5-27.1ZM38.25-13.85Q38.25-13.4 38.1-11.3L38.1-11.3 24.45-11.3Q24.65-7.2 25.87-5.58 27.1-3.95 29.35-3.95L29.35-3.95Q30.9-3.95 32.15-4.48 33.4-5 34.85-6.15L34.85-6.15 37.4-2.65Q33.9 0.75 29 0.75L29 0.75Q23.8 0.75 21.02-2.85 18.25-6.45 18.25-13L18.25-13Q18.25-19.55 20.9-23.35 23.55-27.15 28.4-27.15L28.4-27.15Q33.05-27.15 35.65-23.78 38.25-20.4 38.25-13.85L38.25-13.85ZM32.25-15.3L32.25-15.65Q32.25-19.4 31.35-21.13 30.45-22.85 28.45-22.85L28.45-22.85Q26.6-22.85 25.62-21.18 24.65-19.5 24.45-15.3L24.45-15.3 32.25-15.3ZM53.7-5L55.85-1.2Q53.4 0.75 50.1 0.75L50.1 0.75Q46.65 0.75 44.85-1.23 43.05-3.2 43.05-6.6L43.05-6.6 43.05-22 39.95-22 39.95-26.45 43.05-26.45 43.05-32.3 49.2-33.05 49.2-26.45 54.2-26.45 53.6-22 49.2-22 49.2-6.6Q49.2-4.2 51.25-4.2L51.25-4.2Q51.9-4.2 52.4-4.38 52.9-4.55 53.7-5L53.7-5ZM75.29-6.4Q75.29-5.1 75.64-4.48 75.99-3.85 76.79-3.45L76.79-3.45 75.54 0.65Q73.49 0.4 72.27-0.45 71.04-1.3 70.44-3.05L70.44-3.05Q68.14 0.75 63.99 0.75L63.99 0.75Q60.69 0.75 58.74-1.48 56.79-3.7 56.79-7.4L56.79-7.4Q56.79-11.7 59.47-13.95 62.14-16.2 67.24-16.2L67.24-16.2 69.29-16.2 69.29-18.05Q69.29-20.55 68.42-21.58 67.54-22.6 65.59-22.6L65.59-22.6Q63.24-22.6 59.74-21.3L59.74-21.3 58.34-25.3Q60.34-26.2 62.49-26.68 64.64-27.15 66.59-27.15L66.59-27.15Q75.29-27.15 75.29-18.35L75.29-18.35 75.29-6.4ZM65.64-3.7Q68.04-3.7 69.29-7L69.29-7 69.29-12.55 67.84-12.55Q65.29-12.55 64.12-11.4 62.94-10.25 62.94-7.85L62.94-7.85Q62.94-5.8 63.64-4.75 64.34-3.7 65.64-3.7L65.64-3.7ZM81.09-26.45L87.24-26.45 87.24 0 81.09 0 81.09-26.45ZM84.14-39.65Q85.79-39.65 86.82-38.6 87.84-37.55 87.84-35.9L87.84-35.9Q87.84-34.3 86.82-33.25 85.79-32.2 84.14-32.2L84.14-32.2Q82.49-32.2 81.47-33.25 80.44-34.3 80.44-35.9L80.44-35.9Q80.44-37.55 81.47-38.6 82.49-39.65 84.14-39.65L84.14-39.65ZM98.54 0.75Q95.84 0.75 94.26-0.93 92.69-2.6 92.69-5.4L92.69-5.4 92.69-37.05 98.84-37.7 98.84-5.65Q98.84-5 99.14-4.6 99.44-4.2 100.04-4.2L100.04-4.2Q100.39-4.2 100.71-4.3 101.04-4.4 101.14-4.4L101.14-4.4 102.34-0.2Q100.64 0.75 98.54 0.75L98.54 0.75Z" opacity="1" transform="matrix(1,0,0,1,0,0)" fill="#000000" class="slogan-text-1" data-fill-palette-color="secondary" id="text-1"></path></svg></g></svg></g></svg></g></svg></g><g transform="matrix(1,0,0,1,0,14.696235296797155)"><svg viewBox="0 0 200.4337152 200.4337152" height="200.4337152" width="200.4337152"><g><svg xmlns="http://www.w3.org/2000/svg" xmlns:xlink="http://www.w3.org/1999/xlink" version="1.0" x="0" y="0" viewBox="20 20 60 60" enable-background="new 0 0 100 100" xml:space="preserve" height="200.4337152" width="200.4337152" class="icon-icon-0" data-fill-palette-color="accent" id="icon-0"><path d="M20 26.667c3.682 0 6.667 2.988 6.667 6.667v30C26.667 72.539 34.128 80 43.333 80 52.539 80 60 72.539 60 63.334V40c0-1.842 1.491-3.333 3.333-3.333 1.843 0 3.334 1.491 3.334 3.333v16.666C66.667 64.023 72.637 70 80 70v-6.666c-3.682 0-6.667-2.988-6.667-6.668V40c0-5.524-4.479-10-10-10-5.521 0-10 4.476-10 10v23.334c0 5.523-4.479 10-10 10-5.521 0-10-4.477-10-10v-30C33.333 25.973 27.363 20 20 20V26.667z" fill="#99a28e" data-fill-palette-color="accent"></path></svg></g></svg></g></svg></g><defs></defs></svg><rect width="395.52" height="145.43464713172236" fill="none" stroke="none" visibility="hidden"></rect></g></svg></g></svg>